<svg xmlns="http://www.w3.org/2000/svg" width="350" height="350" viewBox="0.5 568.5 350 350"><path fill="white" d="M190.63 901.217c-3.015 0-5.94-1.188-8.044-3.2-4.023-3.748-10.332-3.748-14.354 0-.09.092-.183.184-.274.184l-.183.184c-2.47 2.103-5.67 3.108-8.87 2.743-3.474-.366-6.582-2.194-8.593-5.028-3.2-4.48-9.417-5.762-14.08-3.02-2.834 1.83-6.4 2.195-9.783 1.1-3.2-1.007-5.944-3.567-7.224-6.676-2.194-5.12-7.954-7.68-13.166-5.852-3.2 1.098-6.766.823-9.783-.914-2.925-1.737-5.028-4.663-5.668-8.046-1.098-5.485-6.218-9.234-11.612-8.503-3.474.456-6.857-.64-9.417-2.927-2.56-2.377-4.022-5.577-4.022-9.143.09-5.577-4.114-10.24-9.6-10.697-3.383-.273-6.49-2.012-8.686-4.846-2.012-2.65-2.743-6.31-2.012-9.69 1.28-5.304-1.92-10.88-7.223-12.435-3.292-1.006-6.034-3.383-7.406-6.584-1.37-3.107-1.37-6.674.092-9.873 2.286-4.938.274-10.973-4.48-13.715-3.017-1.646-5.21-4.572-5.85-7.863-.64-3.383.09-6.857 2.193-9.6 3.383-4.39 2.743-10.697-1.462-14.264-2.56-2.285-4.115-5.576-4.115-9.05s1.463-6.767 4.115-9.052c4.206-3.657 4.846-9.874 1.462-14.263-2.103-2.47-2.925-6.125-2.194-9.6.824-3.475 2.926-6.31 5.944-7.863 4.846-2.65 6.766-8.594 4.48-13.714-1.463-3.2-1.463-6.766-.092-9.874 1.463-3.11 4.114-5.486 7.406-6.584 5.21-1.645 8.412-7.13 7.223-12.434-.73-3.29 0-6.95 2.012-9.69 2.103-2.835 5.303-4.572 8.686-4.847 5.486-.456 9.69-5.12 9.6-10.696 0-3.565 1.463-6.857 4.023-9.143 2.56-2.285 5.944-3.29 9.418-2.925 5.486.64 10.606-3.11 11.703-8.503.64-3.383 2.744-6.4 5.67-8.046 3.016-1.736 6.582-2.103 9.782-.914 5.303 1.737 11.063-.822 13.166-5.852 1.37-3.108 4.022-5.668 7.223-6.674 3.293-1.098 6.858-.64 9.784 1.097 4.754 2.926 10.972 1.554 14.08-3.017 2.012-2.835 5.12-4.663 8.594-5.03 3.474-.364 6.857.732 9.326 3.11 4.023 3.748 10.332 3.748 14.355 0 2.468-2.378 5.85-3.566 9.323-3.11 3.475.367 6.584 2.195 8.596 5.03 3.198 4.48 9.415 5.76 14.08 3.017 2.833-1.83 6.397-2.194 9.78-1.097 3.2 1.006 5.943 3.565 7.225 6.674 2.193 5.12 7.953 7.68 13.164 5.852 3.2-1.098 6.765-.822 9.782.914 2.926 1.737 5.03 4.663 5.67 8.046 1.096 5.485 6.217 9.234 11.61 8.503 3.474-.457 6.856.64 9.417 2.926 2.56 2.378 4.022 5.578 4.022 9.144-.092 5.577 4.113 10.24 9.6 10.697 3.383.275 6.492 2.013 8.686 4.847 2.012 2.65 2.742 6.31 2.012 9.69-1.28 5.304 1.92 10.88 7.223 12.435 3.29 1.006 6.035 3.384 7.406 6.584 1.37 3.108 1.37 6.674-.093 9.874-2.285 4.937-.273 10.972 4.48 13.714 3.016 1.646 5.21 4.572 5.852 7.863.638 3.383-.093 6.857-2.196 9.6-3.383 4.39-2.742 10.697 1.463 14.264 2.56 2.286 4.115 5.577 4.115 9.052s-1.463 6.674-4.115 9.05c-4.113 3.66-4.846 9.968-1.555 14.265 2.104 2.47 2.926 6.125 2.195 9.6-.824 3.475-2.926 6.31-5.943 7.863-4.846 2.65-6.766 8.594-4.48 13.715 1.463 3.2 1.463 6.766.092 9.873-1.463 3.11-4.113 5.486-7.406 6.584-5.21 1.645-8.41 7.13-7.223 12.434.732 3.29 0 6.95-2.012 9.69-1.463 1.92-3.473 3.476-5.576 4.207l-.366.09-.55-1.187.458-.184c1.92-.73 3.656-2.012 4.938-3.657 1.828-2.56 2.47-5.67 1.736-8.595-1.463-6.125 2.104-12.25 8.047-14.08 2.926-.914 5.393-3.017 6.582-5.76 1.28-2.834 1.19-5.942-.092-8.777-2.65-5.668-.457-12.434 5.03-15.45 2.65-1.372 4.57-4.023 5.21-7.04.64-3.11-.092-6.126-1.92-8.595-3.748-4.937-2.926-12.07 1.736-16.183 2.376-2.012 3.657-4.938 3.657-7.955 0-3.017-1.37-5.942-3.658-7.953-4.755-4.115-5.485-11.246-1.737-16.184 1.828-2.377 2.56-5.486 1.92-8.594-.64-2.927-2.47-5.487-5.21-7.042-5.396-3.017-7.59-9.873-5.03-15.45 1.28-2.652 1.28-5.943.092-8.778-1.19-2.742-3.566-4.846-6.582-5.76-5.943-1.828-9.51-8.045-8.047-14.08.732-3.017.092-6.125-1.736-8.594-1.92-2.47-4.572-4.023-7.59-4.297-6.217-.55-10.97-5.853-10.88-12.07 0-3.108-1.28-5.942-3.474-8.046-2.193-2.01-5.21-3.017-8.32-2.65-6.217.73-11.977-3.383-13.074-9.51-.64-3.017-2.377-5.485-5.12-7.13-2.56-1.556-5.76-1.83-8.685-.915-5.852 2.01-12.344-.915-14.812-6.675-1.098-2.835-3.475-4.938-6.4-5.943s-6.033-.64-8.686 1.006c-5.304 3.2-12.25 1.736-15.91-3.383-1.827-2.56-4.57-4.115-7.495-4.39-3.2-.273-6.22.732-8.32 2.835-4.572 4.297-11.703 4.297-16.275 0-2.285-2.103-5.21-3.108-8.32-2.834-3.017.273-5.76 1.828-7.497 4.39-3.565 5.027-10.514 6.58-15.91 3.382-2.65-1.555-5.76-1.92-8.685-1.006-2.834.914-5.12 3.108-6.4 5.943-2.377 5.76-8.87 8.686-14.812 6.674-2.834-1.007-6.125-.642-8.686.913-2.743 1.463-4.572 4.023-5.12 7.13-1.372 6.127-7.13 10.24-13.35 9.51-3.016-.365-6.033.55-8.32 2.65-2.285 2.105-3.565 5.03-3.474 8.047.092 6.31-4.663 11.612-10.88 12.07-3.108.272-5.852 1.827-7.588 4.296-1.83 2.56-2.47 5.668-1.737 8.594 1.464 6.126-2.102 12.252-8.045 14.08-2.925.914-5.394 3.018-6.583 5.76-1.28 2.834-1.188 5.943.09 8.777 2.652 5.67.458 12.435-5.028 15.45-2.65 1.373-4.57 4.024-5.21 7.042-.64 3.106.09 6.124 1.92 8.593 3.748 4.938 2.924 12.068-1.738 16.183-2.377 2.012-3.657 4.938-3.657 7.954 0 3.018 1.37 5.943 3.656 7.955 4.754 4.113 5.486 11.245 1.737 16.183-1.83 2.377-2.56 5.485-1.92 8.595.64 2.925 2.47 5.484 5.21 7.04 5.396 3.017 7.59 9.874 5.03 15.45-1.28 2.835-1.372 5.943-.09 8.777 1.187 2.743 3.564 4.846 6.582 5.76 5.943 1.83 9.51 8.047 8.046 14.08-.73 3.018-.09 6.126 1.738 8.595 1.92 2.47 4.57 4.022 7.588 4.298 6.217.548 10.972 5.85 10.88 12.068 0 3.11 1.28 5.943 3.475 8.046 2.195 2.012 5.212 3.018 8.32 2.65 6.218-.73 11.978 3.385 13.167 9.51.64 3.018 2.377 5.486 5.12 7.132 2.56 1.554 5.76 1.828 8.686.914 5.85-2.012 12.343.914 14.81 6.674 1.098 2.835 3.476 4.938 6.4 5.943 2.926 1.005 6.035.64 8.687-1.007 5.303-3.2 12.25-1.737 15.91 3.383 1.828 2.56 4.57 4.114 7.496 4.39 3.2.273 6.217-.732 8.32-2.835 2.378-2.103 5.12-3.107 8.138-3.107s5.852 1.097 8.045 3.108c2.286 2.104 5.212 3.11 8.32 2.835 3.017-.274 5.76-1.828 7.497-4.39 3.564-5.027 10.514-6.582 15.908-3.382 2.65 1.555 5.76 1.92 8.686 1.006 2.835-.915 5.12-3.11 6.4-5.944 2.378-5.76 8.868-8.686 14.812-6.674 2.834 1.006 6.127.64 8.686-.914 2.744-1.463 4.572-4.023 5.12-7.132.458-2.377 1.556-4.48 3.2-6.126l.275-.273 1.096.822-.366.365c-1.463 1.463-2.47 3.29-2.926 5.394-.64 3.383-2.742 6.4-5.668 8.045-3.018 1.737-6.584 2.104-9.783.914-5.21-1.737-10.97.822-13.166 5.85-1.37 3.11-4.022 5.578-7.222 6.676-3.29 1.097-6.857.64-9.783-1.098-4.754-2.926-10.97-1.554-14.08 3.018-2.012 2.834-5.12 4.663-8.594 5.028-.275.183-.822.183-1.19.183zm110.722-11.52c-6.4 0-12.16-3.475-15.178-9.234h-.092l-.182-.274c-1.19-2.47-1.738-5.12-1.738-7.68 0-1.1.092-2.287.46-3.658l-5.214-5.212h-.273v-.273l-.822-.823-.184-.092-5.853-5.85h-.184v-.185l-6.766-6.766h-.182v-.09h-.092v-.184l-5.578-5.577-.64-.64h-.274v-.275l-.638-.64-5.943-5.943h-.185v-.183l-5.943-6.035h-.914v-.915l-1.736-1.645-.64-.64-2.65-2.652-3.476 3.474c-.55.55-1.19.732-2.104.732-.822 0-1.463-.276-2.102-.824l-5.578-5.577c-15.635 10.696-34.012 16.456-53.03 16.456-51.838 0-94.08-42.24-94.08-94.08s42.333-94.08 94.172-94.08 94.08 42.148 94.08 94.08c0 18.56-5.395 36.48-15.725 51.932l.09.092-.09.09 5.575 5.578c1.098 1.19 1.098 3.018 0 4.115l-4.39 4.388 6.218 6.22h.55v.548l5.942 5.942h.55v.548l6.58 6.4h.458v.55l.367.364h-.092l4.297 4.297v.09l1.463 1.464v-.092l.365.366h.55v.55l7.313 7.312h.55v.55l7.495 7.497h.55v.548l1.828 1.83c.916-.185 1.83-.185 2.744-.275h.273c1.828 0 3.566.274 5.578.914l.182.092.092.183c6.857 2.376 11.338 8.867 11.338 16.09.004 9.418-7.675 17.097-17.093 17.097zm-14.172-10.33l.184.272c2.742 5.303 8.137 8.502 14.08 8.502 8.686 0 15.725-7.04 15.725-15.726 0-6.583-4.114-12.434-10.24-14.628l-.183-.092-.092-.183c-2.285-.823-4.754-1.098-7.223-.823l.184.183h-.092l3.932 3.932h.64v.64l3.75 3.75c1.827 1.827 2.74 4.205 2.74 6.765 0 .914-.183 1.737-.456 2.743h.184l-.275.73c-.458 1.28-1.19 2.286-2.105 3.292-1.736 1.737-4.113 2.65-6.766 2.65-1.83 0-3.565-.547-5.12-1.553v.273l-.55-.548h-.364v-.366l-.184-.182-.55-.365h.093l-7.13-7.132h-.185v-.182l-1.28-1.28c-.09.73-.183 1.555-.183 2.47-.182 2.286.367 4.664 1.463 6.858zm9.234-.916c1.828 1.28 4.023 1.738 6.217 1.373v-17.83l-4.935-4.845-1.28.366v20.937zm7.59-2.558v3.565c1.096-.457 2.01-1.097 2.742-1.828.55-.458 1.006-1.1 1.28-1.647l.274-.73c.457-1.1.73-2.195.73-3.293 0-2.194-.822-4.206-2.377-5.668l-2.742-2.743v12.342h.094zm-15.635-5.12l6.673 6.674v-19.384c-2.742 1.19-5.03 3.018-6.674 5.486v7.223zm-2.286-2.287l.914.915v-3.566c-.367.823-.732 1.646-.914 2.47v.18zm-5.578-5.668l4.48 4.57c.55-1.645 1.188-3.017 2.012-4.205v-16.73l-.732-.64.092-.093-5.76-5.76v22.856h-.092zm-1.463-1.554l.092.092v-22.857l-2.47-2.377v-.09l-3.108-3.11v22.95l5.486 5.393zm9.326-13.532v13.532c1.827-2.103 4.112-3.748 6.673-4.754v-2.104l-6.674-6.673zm-21.76 1.19l5.575 5.577V831.55l-5.668-5.67v19.566l.092-.092v3.566zm-1.83-1.92l.366.366v-22.95l-5.12-5.027v22.947l4.753 4.663zm-11.612-11.52l5.486 5.485v-22.95l-5.486-5.484v22.95zm-79.543-183.772c-51.108 0-92.708 41.6-92.708 92.71 0 51.108 41.6 92.708 92.708 92.708 18.652 0 36.572-5.486 51.932-16l-2.193-2.194c-.55-.55-.822-1.28-.822-2.103 0-.824.273-1.464.822-2.105l.184-.183c-14.54 10.33-32 16-50.013 16-47.085 0-85.668-38.126-86.217-85.212v-.365l-.09-.183v-.092l-.092-.09v-.367l.09-.274c0-.093.092-.184.092-.184v-.092c.366-47.177 38.95-85.577 86.217-85.577 47.177 0 85.76 38.31 86.218 85.395l.092-.092v.55l.09.09.092.093v.548l-.092.093-.09.09c-.092 17.738-5.76 35.02-16 49.373l.914-.915c1.187-1.096 3.017-1.096 4.112 0l2.012 2.013v-.092l.092.093c9.965-15.177 15.268-32.73 15.268-50.926.09-51.108-41.51-92.71-92.62-92.71zm72.777 176.915l5.486 5.485v-21.852l-5.486 5.486v10.88zm-157.53-81.097c.823 21.668 9.69 41.873 25.143 57.234 16 15.816 37.12 24.502 59.61 24.502 22.4 0 43.614-8.686 59.614-24.502 15.632-15.452 24.5-35.84 25.23-57.69-8.593 13.712-20.386 25.324-34.376 33.644-15.176 8.96-32.457 13.715-50.01 13.807h-.55c-17.737 0-35.292-4.754-50.56-13.806-11.703-6.856-21.852-16.09-29.988-27.154l-.823-.365h.55c-1.373-1.83-2.653-3.75-3.84-5.67zm155.43 78.995l.73.73v-8.136l-4.114 4.114 2.742 2.65.64.643zm-16.458-5.302l5.395 5.394c.546.55 1.552.55 2.1 0l3.66-3.474-5.944-5.943c-1.648 1.462-3.384 2.742-5.212 4.023zm12.068.822l5.12-5.028v-.092h.09l6.218-6.217-5.76-5.76c-3.475 4.114-7.314 7.954-11.428 11.43l5.76 5.667zm-15.543-4.023l2.284 2.286.092-.09c9.05-6.4 16.914-14.355 23.406-23.772l-2.195-2.194c-.55-.548-1.555-.548-2.104 0l-21.393 21.486c-.275.274-.457.64-.457 1.006 0 .456.09.822.366 1.28zm22.124-14.262l5.852 5.852 4.39-4.39c.548-.548.548-1.554 0-2.194l-5.577-5.485c-1.465 2.193-3.02 4.205-4.666 6.217zm-110.81-89.967c-7.04 8.687-10.79 19.475-10.79 30.63 0 26.88 21.852 48.73 48.73 48.73 26.882 0 48.733-21.85 48.733-48.73 0-26.88-21.852-48.732-48.732-48.732-11.154 0-22.034 3.84-30.81 10.972.913-.274 1.736-.365 2.742-.365 2.926 0 5.577 1.188 7.497 3.29 6.4-3.747 13.348-5.667 20.57-5.667 22.31 0 40.413 18.102 40.413 40.41s-18.104 40.412-40.412 40.412-40.41-18.104-40.41-40.412c0-7.13 1.92-14.08 5.576-20.297-2.193-1.83-3.474-4.663-3.474-7.498 0-.915.184-1.83.367-2.744zm54.582-16.64c19.84 6.857 33.463 25.6 33.463 47.27 0 11.885-4.298 23.405-11.978 32.456-6.035 7.04-13.715 12.252-22.4 15.086 11.977-1.92 23.68-6.125 34.104-12.252 14.537-8.594 26.605-20.754 34.926-35.107v-.183c-8.412-14.445-20.572-26.605-35.018-35.108-10.24-6.127-21.395-10.15-33.098-12.162zm-95.27 56.87c7.772 10.33 17.738 19.108 28.71 25.6 10.422 6.126 22.033 10.33 34.102 12.25-20.206-6.673-34.286-25.6-34.286-47.542 0-21.76 13.806-40.594 33.83-47.36-11.98 2.013-23.59 6.126-33.738 12.253-11.154 6.58-20.846 15.176-28.708 25.6 5.21 5.3 5.21 13.803.09 19.197zm44.8-28.984c-3.473 5.943-5.21 12.435-5.21 19.383 0 21.486 17.555 39.04 39.04 39.04 21.486 0 39.04-17.554 39.04-39.04 0-21.485-17.554-39.04-39.04-39.04-6.766 0-13.348 1.737-19.565 5.212l.458.456h-.366c1.006 1.646 1.554 3.565 1.554 5.485 0 1.556-.274 3.02-.914 4.3 5.303-4.3 11.794-6.585 18.833-6.585 16.732 0 30.264 13.532 30.264 30.264s-13.532 30.262-30.265 30.262c-8.137 0-15.725-3.2-21.485-8.96-5.67-5.76-8.777-13.258-8.777-21.303 0-6.767 2.286-13.35 6.583-18.744-1.372.64-2.834 1.006-4.39 1.006-2.102 0-4.022-.64-5.76-1.738zm33.83-9.508c-15.91 0-28.892 12.982-28.892 28.89s12.983 28.893 28.89 28.893c15.91 0 28.894-12.984 28.894-28.893s-12.983-28.89-28.893-28.89zM88.687 744.6c1.646 2.835 3.566 5.67 5.486 8.32 4.39-4.846 4.39-12.16-.09-17.005-1.556 2.285-3.567 5.21-5.487 8.41v.275h.09zm88.96-50.103c16.365.73 32.365 5.395 46.355 13.623 13.896 8.137 25.78 19.657 34.377 33.646-1.373-45.44-39.133-82.103-84.847-82.103-22.49 0-43.61 8.686-59.61 24.503-15.544 15.36-24.413 35.657-25.144 57.325 8.41-13.53 20.205-25.05 34.102-33.187 14.17-8.41 30.263-13.074 46.72-13.714 2.744-.366 5.304-.366 8.046-.093zm-37.12 29.258c1.463 1.006 3.2 1.554 5.03 1.554 2.468 0 4.753-.915 6.4-2.744 1.645-1.646 2.468-3.84 2.376-6.125 0-1.736-.55-3.565-1.555-5.028-4.937 3.11-9.143 7.405-12.252 12.343zm5.03-16.276c-4.847 0-8.87 4.022-8.87 8.868 0 2.377 1.006 4.754 2.834 6.49 3.2-5.027 7.497-9.324 12.434-12.434v-.09h.09c-1.734-1.83-4.02-2.835-6.49-2.835zm29.713 174.17c-36.845 0-71.496-14.353-97.645-40.41-26.057-26.058-40.41-60.71-40.41-97.646 0-36.938 14.353-71.59 40.41-97.646 26.24-26.057 60.892-40.41 97.738-40.41S246.95 619.89 273.1 646.04c26.058 26.057 40.41 60.71 40.41 97.646 0 28.71-8.685 56.138-25.05 79.36l-.367.55-.822-1.28.185-.275c16.182-22.948 24.686-50.01 24.686-78.353 0-36.48-14.263-70.856-40.136-96.64-25.69-25.875-60.07-40.137-96.64-40.137-36.48 0-70.858 14.262-96.642 40.137-25.783 25.874-40.137 60.16-40.137 96.55s14.263 70.765 40.137 96.64c25.783 25.873 60.07 40.136 96.64 40.136 27.063 0 53.12-7.862 75.337-22.674l.274-.184 1.098.822-.55.366c-22.49 14.993-48.913 22.947-76.25 22.947zm22.402-236.798h-41.966v-1.372h9.966v-12.068h-9.966v-1.37h41.966v1.37h-10.148l-4.754 12.068h14.902v1.372zm-30.63-1.373h13.716l-4.664-12.07h-9.05v12.07zm10.425-12.07l4.297 10.882 4.297-10.88h-8.593z"/></svg>